<?xml version="1.0" encoding="UTF-8" standalone="no"?>
<!-- Creator: CorelDRAW -->

<svg
   xmlns:dc="http://purl.org/dc/elements/1.1/"
   xmlns:cc="http://creativecommons.org/ns#"
   xmlns:rdf="http://www.w3.org/1999/02/22-rdf-syntax-ns#"
   xmlns:svg="http://www.w3.org/2000/svg"
   xmlns="http://www.w3.org/2000/svg"
   xmlns:sodipodi="http://sodipodi.sourceforge.net/DTD/sodipodi-0.dtd"
   xmlns:inkscape="http://www.inkscape.org/namespaces/inkscape"
   xml:space="preserve"
   width="1024px"
   height="731px"
   style="shape-rendering:geometricPrecision; text-rendering:geometricPrecision; image-rendering:optimizeQuality; fill-rule:evenodd"
   viewBox="0 0 1024 732"
   version="1.1"
   id="brainImage"
   sodipodi:docname="brainImage.svg"
   inkscape:version="0.92.4 (5da689c313, 2019-01-14)"><metadata
   id="metadata4625"><rdf:RDF><cc:Work
       rdf:about=""><dc:format>image/svg+xml</dc:format><dc:type
         rdf:resource="http://purl.org/dc/dcmitype/StillImage" /></cc:Work></rdf:RDF></metadata><sodipodi:namedview
   pagecolor="#ffffff"
   bordercolor="#666666"
   borderopacity="1"
   objecttolerance="10"
   gridtolerance="10"
   guidetolerance="10"
   inkscape:pageopacity="0"
   inkscape:pageshadow="2"
   inkscape:window-width="1920"
   inkscape:window-height="986"
   id="namedview4623"
   showgrid="false"
   inkscape:zoom="1.0437756"
   inkscape:cx="333.80079"
   inkscape:cy="365.5"
   inkscape:window-x="-11"
   inkscape:window-y="-11"
   inkscape:window-maximized="1"
   inkscape:current-layer="svg4621" />
 <defs
   id="defs4172">
  <style
   type="text/css"
   id="style4170">
   <![CDATA[
    .str2 {stroke:#000000;stroke-width:2}
    .str0 {stroke:#000000;stroke-width:2}
    .str1 {stroke:#000000;stroke-width:4}
    .str3 {stroke:#000000;stroke-width:2;stroke-dasharray:5 7}
    .fil5 {fill:none}
    .fil6 {fill:#000000}
    .fil2 {fill:#FFFFFF}
    .fil1 {fill:#B4D8EC}
    .fil3 {fill:#B6CF9D}
    .fil4 {fill:#F7A6B6}
    .fil0 {fill:#FCFB98}
    .fnt4 {font-weight:normal;font-size:14;font-family:Arial}
    .fnt3 {font-weight:normal;font-size:16;font-family:Arial}
    .fnt2 {font-weight:normal;font-size:18;font-family:Arial}
    .fnt1 {font-weight:normal;font-size:23;font-family:Arial}
    .fnt0 {font-weight:normal;font-size:26;font-family:Arial}
   ]]>
  </style>
 </defs>
 <g
   id="Layer1"
   inkscape:label="frontalLobe">
  <path
   class="fil0"
   d="m 564,54 c 13,-2 26,-1 38,6 38,-7 66,-1 83,18 14,-3 29,1 43,11 39,17 67,39 89,64 36,15 50,33 52,53 19,14 31,31 39,50 L 798,413 455,370 352,209 Z"
   id="path4174"
   inkscape:connector-curvature="0"
   style="fill:#fcfb98" />
  <path
   class="fil1"
   d="m 573,52 -15,38 c -64,5 -78,25 -58,57 12,14 -10,26 -16,42 -6,20 -13,41 -23,62 0,54 -31,50 -28,69 l 22,29 -191,199 C 169,563 118,555 104,528 75,518 57,486 51,432 36,416 35,401 40,385 c -2,-6 -3,-12 1,-18 -8,-26 -4,-40 1,-53 2,-20 12,-37 27,-52 -1,-25 14,-38 34,-46 16,-51 88,-86 117,-94 19,-17 45,-27 77,-31 16,-7 31,-12 46,-14 28,-18 60,-21 92,-21 26,-9 53,-12 81,-6 z"
   id="path4176"
   inkscape:connector-curvature="0"
   style="fill:#b4d8ec" />
  <path
   class="fil2 str0"
   d="m 518,579 c 7,28 20,47 41,55 30,14 53,48 77,78 13,-7 27,-13 38,-23 L 560,553 Z"
   id="path4178"
   inkscape:connector-curvature="0"
   style="fill:#ffffff;stroke:#000000;stroke-width:2" />
  <path
   class="fil2 str0"
   d="m 551,571 c 0,6 1,12 7,18 2,34 15,45 33,45 80,51 141,54 187,24 19,-11 49,-22 51,-33 22,-11 35,-22 47,-33 19,-16 19,-44 11,-79 -190,-6 -286,19 -336,58 z"
   id="path4180"
   inkscape:connector-curvature="0"
   style="fill:#ffffff;stroke:#000000;stroke-width:2" />
  <path
   class="fil3"
   d="m 564,312 266,42 c 39,46 78,92 116,138 -28,27 -66,31 -107,25 -17,9 -43,14 -82,0 -15,9 -30,15 -45,20 -24,13 -49,17 -75,17 -24,4 -45,7 -54,0 -15,12 -28,17 -39,20 -17,10 -31,13 -45,16 -12,29 -41,41 -81,41 -27,12 -54,13 -82,-12 -20,-10 -39,-22 -49,-46 -7,-8 -13,-15 -19,-23 -3,-28 4,-53 25,-74 20,-11 23,-40 35,-60 23,-27 60,-38 99,-46 17,-17 37,-29 67,-27 17,-17 37,-32 70,-31 z"
   id="path4182"
   inkscape:connector-curvature="0"
   style="fill:#b6cf9d" />
  <path
   class="fil4"
   d="m 906,255 c -29,26 -48,42 -73,72 -7,25 -3,50 7,75 -5,27 9,48 25,69 32,7 48,11 83,22 10,-12 18,-28 26,-56 7,-11 6,-29 3,-46 6,-24 -5,-33 -20,-50 -4,-15 -9,-34 -27,-49 1,-10 -4,-26 -24,-37 z"
   id="path4184"
   inkscape:connector-curvature="0"
   style="fill:#f7a6b6" />
  <path
   class="fil5 str1"
   d="m 436,56 c -31,-2 -66,4 -96,21 -15,1 -31,9 -44,15 -29,2 -54,12 -76,29 -19,6 -39,13 -56,28 -32,19 -53,41 -63,68 -21,7 -32,23 -32,45 -15,13 -25,30 -27,52 -8,17 -7,34 -2,51 -1,6 -5,13 0,19 -5,11 -3,22 2,33 3,0 4,13 8,15 2,29 9,48 18,62 10,16 20,30 36,34 16,32 82,30 162,19 7,11 14,19 21,27 11,23 29,37 51,46 18,16 40,27 81,11 39,-2 70,-11 80,-41 10,-1 23,-6 44,-16 15,-3 27,-11 38,-20 11,8 34,4 57,0 36,-2 61,-7 73,-17 17,-5 34,-10 47,-20 30,10 58,14 81,0 67,7 120,-7 134,-79 11,-12 8,-30 3,-48 11,-18 -4,-33 -19,-49 -2,-21 -12,-36 -27,-49 2,-14 -3,-26 -23,-36 -8,-24 -22,-39 -39,-50 0,-25 -21,-41 -52,-53 C 792,124 762,103 727,88 713,77 699,76 685,78 669,58 641,53 603,60 593,53 582,53 572,53 549,51 529,50 512,50 483,44 459,48 436,56 Z"
   id="path4186"
   inkscape:connector-curvature="0"
   style="fill:none;stroke:#000000;stroke-width:4" />
  <path
   class="fil5 str0"
   d="m 149,168 c -11,10 -11,17 -4,21"
   id="path4188"
   inkscape:connector-curvature="0"
   style="fill:none;stroke:#000000;stroke-width:2" />
  <path
   class="fil5 str0"
   d="m 178,155 c 49,-34 85,-37 110,-20"
   id="path4190"
   inkscape:connector-curvature="0"
   style="fill:none;stroke:#000000;stroke-width:2" />
  <path
   class="fil5 str0"
   d="m 254,184 c 19,-14 27,-41 42,-60 20,-30 58,-5 82,-7"
   id="path4192"
   inkscape:connector-curvature="0"
   style="fill:none;stroke:#000000;stroke-width:2" />
  <path
   class="fil5 str0"
   d="m 129,215 c -12,14 3,26 3,39"
   id="path4194"
   inkscape:connector-curvature="0"
   style="fill:none;stroke:#000000;stroke-width:2" />
  <path
   class="fil5 str0"
   d="m 91,256 c 17,-9 13,-29 29,-43 11,-14 47,-15 60,-34 14,-21 32,-28 53,-24"
   id="path4196"
   inkscape:connector-curvature="0"
   style="fill:none;stroke:#000000;stroke-width:2" />
  <path
   class="fil5 str0"
   d="m 217,174 c 11,-11 19,-22 26,-33"
   id="path4198"
   inkscape:connector-curvature="0"
   style="fill:none;stroke:#000000;stroke-width:2" />
  <path
   class="fil5 str0"
   d="m 285,176 c 11,-8 16,-18 15,-29"
   id="path4200"
   inkscape:connector-curvature="0"
   style="fill:none;stroke:#000000;stroke-width:2" />
  <path
   class="fil5 str0"
   d="m 274,108 c 8,3 19,1 36,-11"
   id="path4202"
   inkscape:connector-curvature="0"
   style="fill:none;stroke:#000000;stroke-width:2" />
  <path
   class="fil5 str0"
   d="m 297,93 c -4,5 -7,10 -7,14"
   id="path4204"
   inkscape:connector-curvature="0"
   style="fill:none;stroke:#000000;stroke-width:2" />
  <path
   class="fil5 str0"
   d="m 341,77 c 2,4 5,7 8,7"
   id="path4206"
   inkscape:connector-curvature="0"
   style="fill:none;stroke:#000000;stroke-width:2" />
  <path
   class="fil5 str0"
   d="m 369,65 c -4,5 -7,9 -9,13"
   id="path4208"
   inkscape:connector-curvature="0"
   style="fill:none;stroke:#000000;stroke-width:2" />
  <path
   class="fil5 str0"
   d="m 457,64 c -8,1 -16,-1 -24,-8"
   id="path4210"
   inkscape:connector-curvature="0"
   style="fill:none;stroke:#000000;stroke-width:2" />
  <path
   class="fil5 str0"
   d="m 471,124 c -10,-2 -18,-6 -14,-29 1,-20 -15,-26 -43,-24 -26,2 -50,4 -61,10 -9,9 -19,18 -31,28"
   id="path4212"
   inkscape:connector-curvature="0"
   style="fill:none;stroke:#000000;stroke-width:2" />
  <path
   class="fil5 str0"
   d="m 357,89 c -7,7 -9,15 -7,23"
   id="path4214"
   inkscape:connector-curvature="0"
   style="fill:none;stroke:#000000;stroke-width:2" />
  <path
   class="fil5 str0"
   d="m 431,82 c -10,17 -24,32 -34,41 -21,22 -35,46 -13,72"
   id="path4216"
   inkscape:connector-curvature="0"
   style="fill:none;stroke:#000000;stroke-width:2" />
  <path
   class="fil5 str0"
   d="m 372,169 c -11,1 -19,-6 -26,-16 -5,-10 -19,-10 -25,-29"
   id="path4218"
   inkscape:connector-curvature="0"
   style="fill:none;stroke:#000000;stroke-width:2" />
  <path
   class="fil5 str0"
   d="m 454,129 c -49,2 -48,33 -72,44"
   id="path4220"
   inkscape:connector-curvature="0"
   style="fill:none;stroke:#000000;stroke-width:2" />
  <path
   class="fil5 str0"
   d="m 486,178 c 4,-16 -7,-22 -32,-21 -12,1 -24,1 -33,-4"
   id="path4222"
   inkscape:connector-curvature="0"
   style="fill:none;stroke:#000000;stroke-width:2" />
  <path
   class="fil5 str0"
   d="m 461,182 c -26,9 -51,12 -77,14 -12,-1 -29,38 -31,51"
   id="path4224"
   inkscape:connector-curvature="0"
   style="fill:none;stroke:#000000;stroke-width:2" />
  <path
   class="fil5 str0"
   d="m 48,324 c 7,-11 14,-17 23,-20"
   id="path4226"
   inkscape:connector-curvature="0"
   style="fill:none;stroke:#000000;stroke-width:2" />
  <path
   class="fil5 str0"
   d="m 71,311 c -4,-17 27,-22 36,-32 6,-5 11,-24 42,-31 17,-6 31,-24 51,-42 8,-9 23,-13 40,-14"
   id="path4228"
   inkscape:connector-curvature="0"
   style="fill:none;stroke:#000000;stroke-width:2" />
  <path
   class="fil5 str0"
   d="m 211,167 c -9,12 -16,27 -6,34"
   id="path4230"
   inkscape:connector-curvature="0"
   style="fill:none;stroke:#000000;stroke-width:2" />
  <path
   class="fil5 str0"
   d="m 169,236 c -2,12 -2,24 -1,35"
   id="path4232"
   inkscape:connector-curvature="0"
   style="fill:none;stroke:#000000;stroke-width:2" />
  <path
   class="fil5 str0"
   d="m 199,257 c -7,11 -19,24 -14,39"
   id="path4234"
   inkscape:connector-curvature="0"
   style="fill:none;stroke:#000000;stroke-width:2" />
  <path
   class="fil5 str0"
   d="m 175,292 c 18,5 28,23 41,28"
   id="path4236"
   inkscape:connector-curvature="0"
   style="fill:none;stroke:#000000;stroke-width:2" />
  <path
   class="fil5 str0"
   d="m 184,282 c -6,-10 -15,-15 -27,-6 -17,10 -33,21 -50,31 -16,14 -21,28 -14,42"
   id="path4238"
   inkscape:connector-curvature="0"
   style="fill:none;stroke:#000000;stroke-width:2" />
  <path
   class="fil5 str0"
   d="M 49,352 C 62,337 76,330 90,331"
   id="path4240"
   inkscape:connector-curvature="0"
   style="fill:none;stroke:#000000;stroke-width:2" />
  <path
   class="fil5 str0"
   d="m 71,335 c -3,-3 -8,-4 -14,-5"
   id="path4242"
   inkscape:connector-curvature="0"
   style="fill:none;stroke:#000000;stroke-width:2" />
  <path
   class="fil5 str0"
   d="m 103,319 c 24,-13 36,-10 40,3 10,54 26,64 41,78"
   id="path4244"
   inkscape:connector-curvature="0"
   style="fill:none;stroke:#000000;stroke-width:2" />
  <path
   class="fil5 str0"
   d="m 156,299 c -4,4 -10,10 -16,17"
   id="path4246"
   inkscape:connector-curvature="0"
   style="fill:none;stroke:#000000;stroke-width:2" />
  <path
   class="fil5 str0"
   d="m 206,268 c 18,-16 43,-33 -4,-49"
   id="path4248"
   inkscape:connector-curvature="0"
   style="fill:none;stroke:#000000;stroke-width:2" />
  <path
   class="fil5 str0"
   d="m 229,242 c 29,-1 45,5 46,21 1,11 -6,22 -5,34"
   id="path4250"
   inkscape:connector-curvature="0"
   style="fill:none;stroke:#000000;stroke-width:2" />
  <path
   class="fil5 str0"
   d="m 350,386 c 25,-24 40,-46 23,-84 -6,-19 -13,-37 -20,-55 -31,0 -58,5 -78,15"
   id="path4252"
   inkscape:connector-curvature="0"
   style="fill:none;stroke:#000000;stroke-width:2" />
  <path
   class="fil5 str0"
   d="m 323,276 c -15,14 -47,23 -45,48 1,47 18,57 29,68 4,3 8,15 18,27"
   id="path4254"
   inkscape:connector-curvature="0"
   style="fill:none;stroke:#000000;stroke-width:2" />
  <path
   class="fil5 str0"
   d="m 256,149 c -5,19 -26,39 -7,61 7,-5 26,-5 35,-7 16,-10 59,7 76,-5"
   id="path4256"
   inkscape:connector-curvature="0"
   style="fill:none;stroke:#000000;stroke-width:2" />
  <path
   class="fil5 str0"
   d="m 436,269 c 8,-30 -7,-48 -36,-57"
   id="path4258"
   inkscape:connector-curvature="0"
   style="fill:none;stroke:#000000;stroke-width:2" />
  <path
   class="fil5 str0"
   d="m 453,346 c -14,-2 -44,-23 -40,-44 -3,-25 -18,-34 -19,-44 -2,-5 5,-17 -1,-24"
   id="path4260"
   inkscape:connector-curvature="0"
   style="fill:none;stroke:#000000;stroke-width:2" />
  <path
   class="fil5 str0"
   d="m 308,393 c 8,-13 8,-25 -12,-39"
   id="path4262"
   inkscape:connector-curvature="0"
   style="fill:none;stroke:#000000;stroke-width:2" />
  <path
   class="fil5 str0"
   d="m 243,275 c 1,14 2,27 8,41"
   id="path4264"
   inkscape:connector-curvature="0"
   style="fill:none;stroke:#000000;stroke-width:2" />
  <path
   class="fil5 str0"
   d="m 278,324 c -16,-5 -29,-12 -34,-2 -5,4 -19,10 -15,28 -1,8 -30,12 -41,17"
   id="path4266"
   inkscape:connector-curvature="0"
   style="fill:none;stroke:#000000;stroke-width:2" />
  <path
   class="fil5 str0"
   d="m 209,369 c -9,7 -6,21 -10,31 2,21 26,25 51,28"
   id="path4268"
   inkscape:connector-curvature="0"
   style="fill:none;stroke:#000000;stroke-width:2" />
  <path
   class="fil5 str0"
   d="m 96,366 c 6,6 17,11 41,14 10,2 9,9 32,16 9,1 20,2 30,4"
   id="path4270"
   inkscape:connector-curvature="0"
   style="fill:none;stroke:#000000;stroke-width:2" />
  <path
   class="fil5 str0"
   d="m 111,336 c -6,6 -19,11 -20,19 -2,8 -8,16 -13,24 -8,15 -13,27 -12,37 1,21 24,32 36,45"
   id="path4272"
   inkscape:connector-curvature="0"
   style="fill:none;stroke:#000000;stroke-width:2" />
  <path
   class="fil5 str0"
   d="m 47,371 c -3,-2 -5,-4 -7,-6"
   id="path4274"
   inkscape:connector-curvature="0"
   style="fill:none;stroke:#000000;stroke-width:2" />
  <path
   class="fil5 str0"
   d="m 70,362 c -7,7 -14,14 -19,23 -4,11 -3,20 -5,39"
   id="path4276"
   inkscape:connector-curvature="0"
   style="fill:none;stroke:#000000;stroke-width:2" />
  <path
   class="fil5 str0"
   d="m 51,387 c 0,-3 -2,-5 -4,-7"
   id="path4278"
   inkscape:connector-curvature="0"
   style="fill:none;stroke:#000000;stroke-width:2" />
  <path
   class="fil5 str0"
   d="m 51,432 c 2,-6 11,-12 6,-19"
   id="path4280"
   inkscape:connector-curvature="0"
   style="fill:none;stroke:#000000;stroke-width:2" />
  <path
   class="fil5 str0"
   d="m 70,495 c 2,-4 1,-9 3,-11"
   id="path4282"
   inkscape:connector-curvature="0"
   style="fill:none;stroke:#000000;stroke-width:2" />
  <path
   class="fil5 str0"
   d="m 104,528 c 6,-10 7,-16 3,-17"
   id="path4284"
   inkscape:connector-curvature="0"
   style="fill:none;stroke:#000000;stroke-width:2" />
  <path
   class="fil5 str0"
   d="m 114,515 -5,-3"
   id="path4286"
   inkscape:connector-curvature="0"
   style="fill:none;stroke:#000000;stroke-width:2" />
  <path
   class="fil5 str0"
   d="m 87,449 c -10,20 1,34 28,43"
   id="path4288"
   inkscape:connector-curvature="0"
   style="fill:none;stroke:#000000;stroke-width:2" />
  <path
   class="fil5 str0"
   d="m 84,394 c 22,12 45,37 65,44 22,8 54,36 73,23"
   id="path4290"
   inkscape:connector-curvature="0"
   style="fill:none;stroke:#000000;stroke-width:2" />
  <path
   class="fil5 str0"
   d="m 250,446 c -15,3 -33,15 -33,23 1,14 45,24 63,20"
   id="path4292"
   inkscape:connector-curvature="0"
   style="fill:none;stroke:#000000;stroke-width:2" />
  <path
   class="fil5 str0"
   d="m 104,471 c 7,6 17,8 36,-1 20,-6 27,1 41,5"
   id="path4294"
   inkscape:connector-curvature="0"
   style="fill:none;stroke:#000000;stroke-width:2" />
  <path
   class="fil5 str0"
   d="m 219,473 c -24,-2 -36,-1 -44,7 -14,9 -28,7 -33,8 -6,2 -23,19 -47,7"
   id="path4296"
   inkscape:connector-curvature="0"
   style="fill:none;stroke:#000000;stroke-width:2" />
  <path
   class="fil5 str0"
   d="m 154,547 c 33,2 68,1 104,-4"
   id="path4298"
   inkscape:connector-curvature="0"
   style="fill:none;stroke:#000000;stroke-width:2" />
  <path
   class="fil5 str0"
   d="m 192,507 c -8,-2 -12,-6 -12,-13 -1,14 -9,17 -15,23 -7,5 -6,13 -12,20"
   id="path4300"
   inkscape:connector-curvature="0"
   style="fill:none;stroke:#000000;stroke-width:2" />
  <path
   class="fil5 str0"
   d="m 228,488 c -20,0 -39,-1 -53,-8"
   id="path4302"
   inkscape:connector-curvature="0"
   style="fill:none;stroke:#000000;stroke-width:2" />
  <path
   class="fil5 str0"
   d="m 217,488 c 3,17 26,19 38,25"
   id="path4304"
   inkscape:connector-curvature="0"
   style="fill:none;stroke:#000000;stroke-width:2" />
  <path
   class="fil5 str0"
   d="m 209,503 c 2,-4 8,-4 12,-7"
   id="path4306"
   inkscape:connector-curvature="0"
   style="fill:none;stroke:#000000;stroke-width:2" />
  <path
   class="fil5 str0"
   d="m 237,500 c 5,-4 11,-6 15,-11"
   id="path4308"
   inkscape:connector-curvature="0"
   style="fill:none;stroke:#000000;stroke-width:2" />
  <path
   class="fil5 str0"
   d="m 266,501 c -9,-15 19,-20 26,-36"
   id="path4310"
   inkscape:connector-curvature="0"
   style="fill:none;stroke:#000000;stroke-width:2" />
  <path
   class="fil5 str0"
   d="m 264,406 c 16,13 39,20 53,24"
   id="path4312"
   inkscape:connector-curvature="0"
   style="fill:none;stroke:#000000;stroke-width:2" />
  <path
   class="fil5 str0"
   d="m 249,468 c 29,0 55,-19 60,-41 1,-2 8,-3 12,-4"
   id="path4314"
   inkscape:connector-curvature="0"
   style="fill:none;stroke:#000000;stroke-width:2" />
  <path
   class="fil5 str0"
   d="m 498,63 c 5,-5 12,-10 23,-13"
   id="path4316"
   inkscape:connector-curvature="0"
   style="fill:none;stroke:#000000;stroke-width:2" />
  <path
   class="fil5 str0"
   d="m 516,73 c -26,0 -48,4 -59,23"
   id="path4318"
   inkscape:connector-curvature="0"
   style="fill:none;stroke:#000000;stroke-width:2" />
  <path
   class="fil5 str0"
   d="m 489,91 c 6,4 10,8 10,13"
   id="path4320"
   inkscape:connector-curvature="0"
   style="fill:none;stroke:#000000;stroke-width:2" />
  <path
   class="fil5 str0"
   d="m 776,364 c 4,-46 -85,-59 -129,17 -6,16 -60,10 -88,18 -25,10 -50,24 -75,39 -10,16 -45,-10 -65,-8 -65,7 -66,104 -2,120"
   id="path4322"
   inkscape:connector-curvature="0"
   style="fill:none;stroke:#000000;stroke-width:2" />
  <path
   class="fil5 str0"
   d="m 536,327 c 1,20 -21,59 12,77"
   id="path4324"
   inkscape:connector-curvature="0"
   style="fill:none;stroke:#000000;stroke-width:2" />
  <path
   class="fil5 str0"
   d="m 475,369 c 11,-4 14,-21 21,-30"
   id="path4326"
   inkscape:connector-curvature="0"
   style="fill:none;stroke:#000000;stroke-width:2" />
  <path
   class="fil5 str0"
   d="m 453,394 c -5,11 1,15 12,16"
   id="path4328"
   inkscape:connector-curvature="0"
   style="fill:none;stroke:#000000;stroke-width:2" />
  <path
   class="fil5 str0"
   d="m 495,581 c 39,-35 33,-98 -28,-94 -21,2 -36,-3 -46,-13"
   id="path4330"
   inkscape:connector-curvature="0"
   style="fill:none;stroke:#000000;stroke-width:2" />
  <path
   class="fil5 str0"
   d="m 525,473 c 14,25 28,19 45,19 30,-1 47,-31 26,-63"
   id="path4332"
   inkscape:connector-curvature="0"
   style="fill:none;stroke:#000000;stroke-width:2" />
  <path
   class="fil5 str0"
   d="m 546,492 c -13,4 -23,10 -30,18"
   id="path4334"
   inkscape:connector-curvature="0"
   style="fill:none;stroke:#000000;stroke-width:2" />
  <path
   class="fil5 str0"
   d="m 493,514 c -12,4 -24,17 -38,26 -12,18 -29,25 -38,35 -10,15 -15,46 -72,29"
   id="path4336"
   inkscape:connector-curvature="0"
   style="fill:none;stroke:#000000;stroke-width:2" />
  <path
   class="fil5 str0"
   d="m 494,591 c -28,16 -73,2 -79,9"
   id="path4338"
   inkscape:connector-curvature="0"
   style="fill:none;stroke:#000000;stroke-width:2" />
  <path
   class="fil5 str0"
   d="m 567,452 c -10,-3 -16,-17 -21,-24"
   id="path4340"
   inkscape:connector-curvature="0"
   style="fill:none;stroke:#000000;stroke-width:2" />
  <path
   class="fil5 str0"
   d="m 392,411 c 22,12 41,9 60,-6"
   id="path4342"
   inkscape:connector-curvature="0"
   style="fill:none;stroke:#000000;stroke-width:2" />
  <path
   class="fil5 str0"
   d="m 418,418 c -8,12 -17,17 -28,16 -12,-2 -29,11 -49,27 -16,13 -22,27 -26,42 -3,18 -6,26 -10,33"
   id="path4344"
   inkscape:connector-curvature="0"
   style="fill:none;stroke:#000000;stroke-width:2" />
  <path
   class="fil5 str0"
   d="m 327,442 c -2,12 2,20 10,23"
   id="path4346"
   inkscape:connector-curvature="0"
   style="fill:none;stroke:#000000;stroke-width:2" />
  <path
   class="fil5 str0"
   d="m 314,587 c -10,-3 -22,-13 -30,-16"
   id="path4348"
   inkscape:connector-curvature="0"
   style="fill:none;stroke:#000000;stroke-width:2" />
  <path
   class="fil5 str0"
   d="m 356,542 c -38,18 -46,46 -17,79"
   id="path4350"
   inkscape:connector-curvature="0"
   style="fill:none;stroke:#000000;stroke-width:2" />
  <path
   class="fil5 str0"
   d="m 333,503 c -2,13 7,22 16,30 8,4 8,15 10,18 12,17 14,28 15,38"
   id="path4352"
   inkscape:connector-curvature="0"
   style="fill:none;stroke:#000000;stroke-width:2" />
  <path
   class="fil5 str0"
   d="m 611,358 c 14,-16 39,-3 58,-5"
   id="path4354"
   inkscape:connector-curvature="0"
   style="fill:none;stroke:#000000;stroke-width:2" />
  <path
   class="fil5 str0"
   d="m 562,373 c 12,-10 17,-23 13,-41"
   id="path4356"
   inkscape:connector-curvature="0"
   style="fill:none;stroke:#000000;stroke-width:2" />
  <path
   class="fil5 str0"
   d="m 586,365 c -4,-3 -8,-6 -11,-10"
   id="path4358"
   inkscape:connector-curvature="0"
   style="fill:none;stroke:#000000;stroke-width:2" />
  <path
   class="fil5 str0"
   d="m 581,554 c -4,-10 -1,-20 9,-29"
   id="path4360"
   inkscape:connector-curvature="0"
   style="fill:none;stroke:#000000;stroke-width:2" />
  <path
   class="fil5 str0"
   d="m 562,548 c 3,-5 13,-6 19,-9"
   id="path4362"
   inkscape:connector-curvature="0"
   style="fill:none;stroke:#000000;stroke-width:2" />
  <path
   class="fil5 str0"
   d="m 639,509 c -3,19 10,28 38,29"
   id="path4364"
   inkscape:connector-curvature="0"
   style="fill:none;stroke:#000000;stroke-width:2" />
  <path
   class="fil5 str0"
   d="m 630,540 c 5,-20 -8,-39 -34,-58"
   id="path4366"
   inkscape:connector-curvature="0"
   style="fill:none;stroke:#000000;stroke-width:2" />
  <path
   class="fil5 str0"
   d="m 631,528 c 3,-2 6,-4 9,-6"
   id="path4368"
   inkscape:connector-curvature="0"
   style="fill:none;stroke:#000000;stroke-width:2" />
  <path
   class="fil5 str0"
   d="m 683,467 c -15,-3 -27,-9 -27,-25 -3,-14 -21,-28 -13,-56"
   id="path4370"
   inkscape:connector-curvature="0"
   style="fill:none;stroke:#000000;stroke-width:2" />
  <path
   class="fil5 str0"
   d="m 612,480 c 12,12 36,-3 58,-3 54,-2 68,27 42,59"
   id="path4372"
   inkscape:connector-curvature="0"
   style="fill:none;stroke:#000000;stroke-width:2" />
  <path
   class="fil5 str0"
   d="m 724,512 c 26,-1 44,-11 55,-32"
   id="path4374"
   inkscape:connector-curvature="0"
   style="fill:none;stroke:#000000;stroke-width:2" />
  <path
   class="fil5 str0"
   d="m 758,518 -9,-10"
   id="path4376"
   inkscape:connector-curvature="0"
   style="fill:none;stroke:#000000;stroke-width:2" />
  <path
   class="fil5 str0"
   d="m 798,506 c 16,0 30,3 41,12"
   id="path4378"
   inkscape:connector-curvature="0"
   style="fill:none;stroke:#000000;stroke-width:2" />
  <path
   class="fil5 str0"
   d="m 830,500 c -5,3 -10,5 -15,7"
   id="path4380"
   inkscape:connector-curvature="0"
   style="fill:none;stroke:#000000;stroke-width:2" />
  <path
   class="fil5 str0"
   d="m 856,507 c -3,-17 8,-25 9,-35"
   id="path4382"
   inkscape:connector-curvature="0"
   style="fill:none;stroke:#000000;stroke-width:2" />
  <path
   class="fil5 str0"
   d="m 675,403 c 8,7 18,13 16,21 3,17 24,19 36,21 24,10 46,21 33,41"
   id="path4384"
   inkscape:connector-curvature="0"
   style="fill:none;stroke:#000000;stroke-width:2" />
  <path
   class="fil5 str0"
   d="m 549,310 c -13,-4 -25,-12 -37,-26"
   id="path4386"
   inkscape:connector-curvature="0"
   style="fill:none;stroke:#000000;stroke-width:2" />
  <path
   class="fil5 str0"
   d="m 588,152 c -9,6 -19,18 -33,27 -14,8 -29,15 -36,40 -2,22 0,37 -5,51 -4,13 -6,25 0,34"
   id="path4388"
   inkscape:connector-curvature="0"
   style="fill:none;stroke:#000000;stroke-width:2" />
  <path
   class="fil5 str0"
   d="m 524,140 c 33,8 44,18 41,31"
   id="path4390"
   inkscape:connector-curvature="0"
   style="fill:none;stroke:#000000;stroke-width:2" />
  <path
   class="fil5 str0"
   d="m 727,434 c 6,-10 6,-19 6,-29 10,-16 64,6 71,-39"
   id="path4392"
   inkscape:connector-curvature="0"
   style="fill:none;stroke:#000000;stroke-width:2" />
  <path
   class="fil5 str0"
   d="m 728,364 c 5,11 6,25 5,41"
   id="path4394"
   inkscape:connector-curvature="0"
   style="fill:none;stroke:#000000;stroke-width:2" />
  <path
   class="fil5 str0"
   d="m 512,183 c 6,9 9,18 11,26"
   id="path4396"
   inkscape:connector-curvature="0"
   style="fill:none;stroke:#000000;stroke-width:2" />
  <path
   class="fil5 str0"
   d="m 791,478 c 16,-24 16,-57 45,-67"
   id="path4398"
   inkscape:connector-curvature="0"
   style="fill:none;stroke:#000000;stroke-width:2" />
  <path
   class="fil5 str0"
   d="m 753,457 c 2,-6 5,-11 8,-15"
   id="path4400"
   inkscape:connector-curvature="0"
   style="fill:none;stroke:#000000;stroke-width:2" />
  <path
   class="fil5 str0"
   d="m 803,329 c -7,-4 -10,-11 -7,-23"
   id="path4402"
   inkscape:connector-curvature="0"
   style="fill:none;stroke:#000000;stroke-width:2" />
  <path
   class="fil5 str0"
   d="m 773,346 c 8,-5 15,-15 22,-28"
   id="path4404"
   inkscape:connector-curvature="0"
   style="fill:none;stroke:#000000;stroke-width:2" />
  <path
   class="fil5 str0"
   d="m 815,269 c 1,25 22,27 18,55"
   id="path4406"
   inkscape:connector-curvature="0"
   style="fill:none;stroke:#000000;stroke-width:2" />
  <path
   class="fil5 str0"
   d="m 762,322 c 1,-27 15,-43 32,-57 10,-11 22,-17 15,-52 4,-21 29,-44 7,-59 -26,-12 -48,-36 -88,-37"
   id="path4408"
   inkscape:connector-curvature="0"
   style="fill:none;stroke:#000000;stroke-width:2" />
  <path
   class="fil5 str0"
   d="m 546,288 c 12,-21 47,-33 50,-41 8,-21 2,-42 3,-62 6,-17 22,-24 40,-29 28,-32 58,-36 89,-12"
   id="path4410"
   inkscape:connector-curvature="0"
   style="fill:none;stroke:#000000;stroke-width:2" />
  <path
   class="fil5 str0"
   d="m 600,220 c -4,-5 -9,-8 -14,-11"
   id="path4412"
   inkscape:connector-curvature="0"
   style="fill:none;stroke:#000000;stroke-width:2" />
  <path
   class="fil5 str0"
   d="m 595,250 c 9,-5 17,-7 26,-6"
   id="path4414"
   inkscape:connector-curvature="0"
   style="fill:none;stroke:#000000;stroke-width:2" />
  <path
   class="fil5 str0"
   d="m 505,116 c 51,5 115,13 119,45"
   id="path4416"
   inkscape:connector-curvature="0"
   style="fill:none;stroke:#000000;stroke-width:2" />
  <path
   class="fil5 str0"
   d="m 629,123 c -7,-10 -24,-15 -32,-22"
   id="path4418"
   inkscape:connector-curvature="0"
   style="fill:none;stroke:#000000;stroke-width:2" />
  <path
   class="fil5 str0"
   d="m 597,77 c 7,12 11,23 18,35"
   id="path4420"
   inkscape:connector-curvature="0"
   style="fill:none;stroke:#000000;stroke-width:2" />
  <path
   class="fil5 str0"
   d="m 603,60 c 12,17 35,18 36,40"
   id="path4422"
   inkscape:connector-curvature="0"
   style="fill:none;stroke:#000000;stroke-width:2" />
  <path
   class="fil5 str0"
   d="m 634,85 c 2,-3 4,-5 6,-8"
   id="path4424"
   inkscape:connector-curvature="0"
   style="fill:none;stroke:#000000;stroke-width:2" />
  <path
   class="fil5 str0"
   d="M 674,131 C 662,102 636,103 623,96"
   id="path4426"
   inkscape:connector-curvature="0"
   style="fill:none;stroke:#000000;stroke-width:2" />
  <path
   class="fil5 str0"
   d="m 659,100 c 16,6 24,16 24,29"
   id="path4428"
   inkscape:connector-curvature="0"
   style="fill:none;stroke:#000000;stroke-width:2" />
  <path
   class="fil5 str0"
   d="m 635,67 c 20,5 37,13 51,27"
   id="path4430"
   inkscape:connector-curvature="0"
   style="fill:none;stroke:#000000;stroke-width:2" />
  <path
   class="fil5 str0"
   d="m 671,106 c 5,-13 28,-16 57,-17"
   id="path4432"
   inkscape:connector-curvature="0"
   style="fill:none;stroke:#000000;stroke-width:2" />
  <path
   class="fil5 str0"
   d="m 719,155 c 9,-23 60,-13 89,9"
   id="path4434"
   inkscape:connector-curvature="0"
   style="fill:none;stroke:#000000;stroke-width:2" />
  <path
   class="fil5 str0"
   d="m 625,180 c 16,-8 35,-10 54,1"
   id="path4436"
   inkscape:connector-curvature="0"
   style="fill:none;stroke:#000000;stroke-width:2" />
  <path
   class="fil5 str0"
   d="m 695,140 c -15,15 -29,30 -10,47 35,34 56,53 26,83"
   id="path4438"
   inkscape:connector-curvature="0"
   style="fill:none;stroke:#000000;stroke-width:2" />
  <path
   class="fil5 str0"
   d="m 782,162 c 9,13 9,28 3,42"
   id="path4440"
   inkscape:connector-curvature="0"
   style="fill:none;stroke:#000000;stroke-width:2" />
  <path
   class="fil5 str0"
   d="m 727,201 c 14,9 22,23 24,42 10,47 -3,58 -17,68"
   id="path4442"
   inkscape:connector-curvature="0"
   style="fill:none;stroke:#000000;stroke-width:2" />
  <path
   class="fil5 str0"
   d="m 641,293 c 30,7 52,8 57,-8"
   id="path4444"
   inkscape:connector-curvature="0"
   style="fill:none;stroke:#000000;stroke-width:2" />
  <path
   class="fil5 str0"
   d="m 674,298 c 7,1 14,4 19,8"
   id="path4446"
   inkscape:connector-curvature="0"
   style="fill:none;stroke:#000000;stroke-width:2" />
  <path
   class="fil5 str0"
   d="m 732,327 c 11,-15 0,-23 -46,-31"
   id="path4448"
   inkscape:connector-curvature="0"
   style="fill:none;stroke:#000000;stroke-width:2" />
  <path
   class="fil5 str0"
   d="m 740,213 c 17,-13 20,-34 30,-51"
   id="path4450"
   inkscape:connector-curvature="0"
   style="fill:none;stroke:#000000;stroke-width:2" />
  <path
   class="fil5 str0"
   d="m 809,214 c 21,-2 37,6 50,23"
   id="path4452"
   inkscape:connector-curvature="0"
   style="fill:none;stroke:#000000;stroke-width:2" />
  <path
   class="fil5 str0"
   d="m 841,199 c 6,2 16,5 28,8"
   id="path4454"
   inkscape:connector-curvature="0"
   style="fill:none;stroke:#000000;stroke-width:2" />
  <path
   class="fil5 str0"
   d="m 912,290 c -14,5 -23,16 -28,31 -13,10 -20,25 -24,41"
   id="path4456"
   inkscape:connector-curvature="0"
   style="fill:none;stroke:#000000;stroke-width:2" />
  <path
   class="fil5 str0"
   d="m 962,422 c 7,3 11,8 11,16"
   id="path4458"
   inkscape:connector-curvature="0"
   style="fill:none;stroke:#000000;stroke-width:2" />
  <path
   class="fil5 str0"
   d="m 941,328 c -4,5 -9,7 -16,8 -9,8 -15,17 -15,28 7,17 8,30 4,41"
   id="path4460"
   inkscape:connector-curvature="0"
   style="fill:none;stroke:#000000;stroke-width:2" />
  <path
   class="fil5 str0"
   d="m 913,350 c 0,-6 -2,-13 -7,-19"
   id="path4462"
   inkscape:connector-curvature="0"
   style="fill:none;stroke:#000000;stroke-width:2" />
  <path
   class="fil5 str0"
   d="m 937,403 c 6,-9 10,-19 10,-34 1,-12 4,-22 9,-28"
   id="path4464"
   inkscape:connector-curvature="0"
   style="fill:none;stroke:#000000;stroke-width:2" />
  <path
   class="fil5 str0"
   d="m 947,378 c 10,1 13,7 12,15 7,6 10,15 13,23"
   id="path4466"
   inkscape:connector-curvature="0"
   style="fill:none;stroke:#000000;stroke-width:2" />
  <path
   class="fil5 str0"
   d="m 677,197 c -9,18 -25,35 -27,54 -16,35 -71,32 -84,59"
   id="path4468"
   inkscape:connector-curvature="0"
   style="fill:none;stroke:#000000;stroke-width:2" />
  <path
   class="fil5 str2"
   d="m 771,522 c -38,14 -80,30 -113,61"
   id="path4470"
   inkscape:connector-curvature="0"
   style="fill:none;stroke:#000000;stroke-width:2" />
  <path
   class="fil5 str2"
   d="m 663,571 c 12,-9 24,-18 36,-27"
   id="path4472"
   inkscape:connector-curvature="0"
   style="fill:none;stroke:#000000;stroke-width:2" />
  <path
   class="fil5 str2"
   d="m 788,526 c -34,11 -70,25 -104,43"
   id="path4474"
   inkscape:connector-curvature="0"
   style="fill:none;stroke:#000000;stroke-width:2" />
  <path
   class="fil5 str2"
   d="m 811,527 c -52,17 -109,41 -160,65"
   id="path4476"
   inkscape:connector-curvature="0"
   style="fill:none;stroke:#000000;stroke-width:2" />
  <path
   class="fil5 str2"
   d="m 889,523 c -44,14 -223,77 -242,77 m -1,-4 c 75,-31 155,-55 231,-77"
   id="path4478"
   inkscape:connector-curvature="0"
   style="fill:none;stroke:#000000;stroke-width:2" />
  <path
   class="fil5 str2"
   d="m 891,544 c -46,17 -198,56 -234,60 79,-26 156,-47 233,-71"
   id="path4480"
   inkscape:connector-curvature="0"
   style="fill:none;stroke:#000000;stroke-width:2" />
  <g
   transform="rotate(-43.946732,410.61587,842.13381)"
   id="g4484">
   <text
   x="512"
   y="366"
   class="fil6 fnt0"
   id="text4482"
   style="font-weight:normal;font-size:26px;font-family:Arial;fill:#000000">F R O N T A L   L O B E</text>

  </g>
  <g
   transform="rotate(-5.265643,-936.77553,486.36706)"
   id="g4488">
   <text
   x="512"
   y="366"
   class="fil6 fnt0"
   id="text4486"
   style="font-weight:normal;font-size:26px;font-family:Arial;fill:#000000">P A R I E T A L   L O B E</text>

  </g>
  <g
   transform="rotate(-10.400694,1181.1176,1068.0212)"
   id="g4492">
   <text
   x="512"
   y="366"
   class="fil6 fnt0"
   id="text4490"
   style="font-weight:normal;font-size:26px;font-family:Arial;fill:#000000">T E M P O R A L   L O B E</text>

  </g>
  <text
   x="850"
   y="371"
   class="fil6 fnt1"
   id="text4494"
   style="font-weight:normal;font-size:23px;font-family:Arial;fill:#000000">OCCIPITAL</text>

  <text
   x="879"
   y="396"
   class="fil6 fnt1"
   id="text4496"
   style="font-weight:normal;font-size:23px;font-family:Arial;fill:#000000">LOBE</text>

  <path
   class="fil5 str2"
   d="m 669,552 c -12,52 -40,56 -72,47 -13,-10 -26,-10 -39,-10"
   id="path4498"
   inkscape:connector-curvature="0"
   style="fill:none;stroke:#000000;stroke-width:2" />
  <path
   class="fil5 str2"
   d="m 644,598 c 9,-15 13,-29 15,-44"
   id="path4500"
   inkscape:connector-curvature="0"
   style="fill:none;stroke:#000000;stroke-width:2" />
  <path
   class="fil5 str2"
   d="m 635,601 c 9,-12 14,-28 16,-47"
   id="path4502"
   inkscape:connector-curvature="0"
   style="fill:none;stroke:#000000;stroke-width:2" />
  <path
   class="fil5 str2"
   d="m 623,603 c 14,-12 19,-28 18,-49"
   id="path4504"
   inkscape:connector-curvature="0"
   style="fill:none;stroke:#000000;stroke-width:2" />
  <path
   class="fil5 str2"
   d="m 616,602 c 10,-13 17,-28 18,-46"
   id="path4506"
   inkscape:connector-curvature="0"
   style="fill:none;stroke:#000000;stroke-width:2" />
  <path
   class="fil5 str2"
   d="m 607,602 c 10,-13 18,-28 22,-45"
   id="path4508"
   inkscape:connector-curvature="0"
   style="fill:none;stroke:#000000;stroke-width:2" />
  <path
   class="fil5 str2"
   d="m 600,600 23,-42"
   id="path4510"
   inkscape:connector-curvature="0"
   style="fill:none;stroke:#000000;stroke-width:2" />
  <path
   class="fil5 str2"
   d="m 594,598 c 6,-13 10,-28 18,-38"
   id="path4512"
   inkscape:connector-curvature="0"
   style="fill:none;stroke:#000000;stroke-width:2" />
  <path
   class="fil5 str2"
   d="m 590,594 c 5,-11 7,-24 11,-34"
   id="path4514"
   inkscape:connector-curvature="0"
   style="fill:none;stroke:#000000;stroke-width:2" />
  <path
   class="fil5 str2"
   d="m 585,593 c 1,-12 4,-23 7,-34"
   id="path4516"
   inkscape:connector-curvature="0"
   style="fill:none;stroke:#000000;stroke-width:2" />
  <path
   class="fil5 str2"
   d="m 579,591 4,-35"
   id="path4518"
   inkscape:connector-curvature="0"
   style="fill:none;stroke:#000000;stroke-width:2" />
  <path
   class="fil5 str2"
   d="m 575,590 c -2,-9 -3,-18 -3,-27"
   id="path4520"
   inkscape:connector-curvature="0"
   style="fill:none;stroke:#000000;stroke-width:2" />
  <path
   class="fil5 str2"
   d="m 567,589 c -4,-7 -4,-14 -3,-21"
   id="path4522"
   inkscape:connector-curvature="0"
   style="fill:none;stroke:#000000;stroke-width:2" />
  <path
   class="fil5 str2"
   d="m 561,589 -4,-18"
   id="path4524"
   inkscape:connector-curvature="0"
   style="fill:none;stroke:#000000;stroke-width:2" />
  <path
   class="fil5 str2"
   d="m 588,593 c -2,11 3,20 12,28"
   id="path4526"
   inkscape:connector-curvature="0"
   style="fill:none;stroke:#000000;stroke-width:2" />
  <path
   class="fil5 str2"
   d="m 578,591 c -2,14 2,28 14,37"
   id="path4528"
   inkscape:connector-curvature="0"
   style="fill:none;stroke:#000000;stroke-width:2" />
  <path
   class="fil5 str2"
   d="m 564,590 c 3,19 12,34 26,43"
   id="path4530"
   inkscape:connector-curvature="0"
   style="fill:none;stroke:#000000;stroke-width:2" />
  <path
   class="fil5 str2"
   d="m 590,633 c 9,-10 17,-22 26,-30"
   id="path4532"
   inkscape:connector-curvature="0"
   style="fill:none;stroke:#000000;stroke-width:2" />
  <path
   class="fil5 str2"
   d="m 869,551 c -28,29 -65,53 -111,72 -39,-3 -78,-16 -117,-24"
   id="path4534"
   inkscape:connector-curvature="0"
   style="fill:none;stroke:#000000;stroke-width:2" />
  <path
   class="fil5 str2"
   d="m 677,601 c 32,5 63,10 95,16"
   id="path4536"
   inkscape:connector-curvature="0"
   style="fill:none;stroke:#000000;stroke-width:2" />
  <path
   class="fil5 str2"
   d="m 786,610 c -29,-5 -57,-10 -85,-14"
   id="path4538"
   inkscape:connector-curvature="0"
   style="fill:none;stroke:#000000;stroke-width:2" />
  <path
   class="fil5 str2"
   d="m 727,590 c 25,4 46,7 70,14"
   id="path4540"
   inkscape:connector-curvature="0"
   style="fill:none;stroke:#000000;stroke-width:2" />
  <path
   class="fil5 str2"
   d="m 746,585 c 22,0 43,5 62,13"
   id="path4542"
   inkscape:connector-curvature="0"
   style="fill:none;stroke:#000000;stroke-width:2" />
  <path
   class="fil5 str2"
   d="m 774,578 c 15,2 31,6 46,13"
   id="path4544"
   inkscape:connector-curvature="0"
   style="fill:none;stroke:#000000;stroke-width:2" />
  <path
   class="fil5 str2"
   d="m 832,583 c -9,-1 -20,0 -30,0"
   id="path4546"
   inkscape:connector-curvature="0"
   style="fill:none;stroke:#000000;stroke-width:2" />
  <path
   class="fil5 str2"
   d="m 843,574 c -20,4 -38,4 -53,0"
   id="path4548"
   inkscape:connector-curvature="0"
   style="fill:none;stroke:#000000;stroke-width:2" />
  <path
   class="fil5 str2"
   d="m 804,570 c 9,2 28,0 47,-3 14,-4 27,-9 40,-15"
   id="path4550"
   inkscape:connector-curvature="0"
   style="fill:none;stroke:#000000;stroke-width:2" />
  <path
   class="fil5 str2"
   d="m 594,630 c 34,24 85,41 144,46"
   id="path4552"
   inkscape:connector-curvature="0"
   style="fill:none;stroke:#000000;stroke-width:2" />
  <path
   class="fil5 str2"
   d="m 597,624 c 41,31 97,42 159,46"
   id="path4554"
   inkscape:connector-curvature="0"
   style="fill:none;stroke:#000000;stroke-width:2" />
  <path
   class="fil5 str2"
   d="m 601,621 c 66,39 122,47 174,38"
   id="path4556"
   inkscape:connector-curvature="0"
   style="fill:none;stroke:#000000;stroke-width:2" />
  <path
   class="fil5 str2"
   d="m 604,616 c 65,36 125,45 182,37"
   id="path4558"
   inkscape:connector-curvature="0"
   style="fill:none;stroke:#000000;stroke-width:2" />
  <path
   class="fil5 str2"
   d="m 608,611 c 70,34 133,43 193,36"
   id="path4560"
   inkscape:connector-curvature="0"
   style="fill:none;stroke:#000000;stroke-width:2" />
  <path
   class="fil5 str2"
   d="m 613,607 c 63,31 129,41 198,34"
   id="path4562"
   inkscape:connector-curvature="0"
   style="fill:none;stroke:#000000;stroke-width:2" />
  <path
   class="fil5 str2"
   d="m 624,603 c 67,32 132,33 197,31"
   id="path4564"
   inkscape:connector-curvature="0"
   style="fill:none;stroke:#000000;stroke-width:2" />
  <path
   class="fil5 str2"
   d="m 758,623 c 7,9 32,9 71,3"
   id="path4566"
   inkscape:connector-curvature="0"
   style="fill:none;stroke:#000000;stroke-width:2" />
  <path
   class="fil5 str2"
   d="m 770,618 c 6,9 34,6 69,1"
   id="path4568"
   inkscape:connector-curvature="0"
   style="fill:none;stroke:#000000;stroke-width:2" />
  <path
   class="fil5 str2"
   d="m 788,610 c 13,4 46,-4 83,-14"
   id="path4570"
   inkscape:connector-curvature="0"
   style="fill:none;stroke:#000000;stroke-width:2" />
  <path
   class="fil5 str2"
   d="m 777,615 c 9,6 43,1 80,-7"
   id="path4572"
   inkscape:connector-curvature="0"
   style="fill:none;stroke:#000000;stroke-width:2" />
  <path
   class="fil5 str2"
   d="m 885,579 c -41,18 -72,28 -88,26"
   id="path4574"
   inkscape:connector-curvature="0"
   style="fill:none;stroke:#000000;stroke-width:2" />
  <path
   class="fil5 str2"
   d="m 808,598 c 22,-1 51,-13 80,-25"
   id="path4576"
   inkscape:connector-curvature="0"
   style="fill:none;stroke:#000000;stroke-width:2" />
  <path
   class="fil5 str2"
   d="m 822,590 c 22,-5 45,-14 68,-24"
   id="path4578"
   inkscape:connector-curvature="0"
   style="fill:none;stroke:#000000;stroke-width:2" />
  <path
   class="fil5 str2"
   d="m 891,558 c -18,9 -36,16 -55,22"
   id="path4580"
   inkscape:connector-curvature="0"
   style="fill:none;stroke:#000000;stroke-width:2" />
  <path
   class="fil5 str2"
   d="m 634,601 c 45,16 93,26 140,29"
   id="path4582"
   inkscape:connector-curvature="0"
   style="fill:none;stroke:#000000;stroke-width:2" />
  <path
   class="fil6"
   d="m 884,320 c -2,-30 -49,-77 -77,-68 23,-16 83,23 77,68 z"
   id="path4584"
   inkscape:connector-curvature="0"
   style="fill:#000000" />
  <path
   class="fil6"
   d="m 264,547 c -4,-28 9,-53 30,-74 23,-18 18,-44 28,-52 14,-27 51,-44 103,-53 16,-19 37,-29 66,-28 20,-17 38,-33 75,-33 2,9 5,18 9,26 -4,-5 -10,-11 -14,-18 -33,-3 -56,16 -69,32 -23,-5 -43,2 -62,24 -53,10 -91,26 -104,53 -7,24 -15,44 -30,52 -17,18 -32,44 -22,82 -3,-3 -6,-8 -10,-11 z"
   id="path4586"
   inkscape:connector-curvature="0"
   style="fill:#000000" />
  <path
   class="fil6"
   d="m 567,54 c -9,6 -5,21 -11,32 -48,3 -75,21 -66,54 11,13 13,22 6,28 -14,8 -19,29 -24,52 -10,13 -16,34 -16,56 -1,19 -29,30 -25,46 2,0 3,0 4,0 0,-7 4,-14 11,-20 9,-5 13,-17 16,-33 -1,-14 3,-28 14,-43 5,-19 7,-47 27,-56 12,-5 5,-18 -6,-34 -13,-32 22,-40 59,-45 15,-4 11,-28 21,-36 -3,-1 -7,-1 -10,-1 z"
   id="path4588"
   inkscape:connector-curvature="0"
   style="fill:#000000" />
  <path
   class="fil5 str0"
   d="m 530,160 c -9,-3 -17,-2 -24,4"
   id="path4590"
   inkscape:connector-curvature="0"
   style="fill:none;stroke:#000000;stroke-width:2" />
  <g
   transform="rotate(-66.450272,397.86446,365.23649)"
   id="g4594">
   <text
   x="512"
   y="366"
   class="fil6 fnt2"
   id="text4592"
   style="font-weight:normal;font-size:18px;font-family:Arial;fill:#000000">CENTRAL  F.</text>

  </g>
  <g
   transform="rotate(2.2997414,3766.9056,10398.448)"
   id="g4598">
   <text
   x="512"
   y="366"
   class="fil6 fnt3"
   id="text4596"
   style="font-weight:normal;font-size:16px;font-family:Arial;fill:#000000">OCCIPITAL F.</text>

  </g>
  <path
   class="fil5 str2"
   d="m 907,254 13,-8"
   id="path4600"
   inkscape:connector-curvature="0"
   style="fill:none;stroke:#000000;stroke-width:2" />
  <g
   transform="rotate(-21.417425,572.53666,808.89889)"
   id="g4604">
   <text
   x="512"
   y="366"
   class="fil6 fnt2"
   id="text4602"
   style="font-weight:normal;font-size:18px;font-family:Arial;fill:#000000">SYLVIAN  F.</text>

  </g>
  <path
   class="fil6"
   d="m 903,251 c -7,8 -15,17 -23,25 7,0 16,-5 28,-20 z"
   id="path4606"
   inkscape:connector-curvature="0"
   style="fill:#000000" />
  <path
   class="fil6"
   d="m 881,277 c -17,14 -34,29 -46,44 -9,12 -10,29 -7,48 2,14 4,28 7,41 4,0 7,0 11,1 16,16 56,13 68,19 7,10 13,17 17,15 7,7 12,15 15,23 -3,-10 3,-10 -18,-34 -9,-9 -30,-14 -63,-19 -23,-8 -28,-22 -30,-40 -4,-17 -6,-33 0,-50 13,-16 29,-32 46,-48 z"
   id="path4608"
   inkscape:connector-curvature="0"
   style="fill:#000000" />
  <g
   transform="matrix(0.931507,0.363722,-0.363722,0.931507,497.459,-133.335)"
   id="g4612">
   <text
   x="512"
   y="366"
   class="fil6 fnt4"
   id="text4610"
   style="font-weight:normal;font-size:14px;font-family:Arial;fill:#000000">EXOOCCIPITAL  FF.</text>

  </g>
  <path
   class="fil5 str3"
   d="m 567,312 263,41"
   id="path4614"
   inkscape:connector-curvature="0"
   style="fill:none;stroke:#000000;stroke-width:2;stroke-dasharray:5, 7" />
  <path
   class="fil6"
   d="m 838,407 c 3,23 11,44 28,60 34,1 55,20 85,21 l -7,7 c -14,1 -27,-11 -40,-13 -11,-4 -33,-5 -43,-10 -15,-21 -24,-43 -23,-65 z"
   id="path4616"
   inkscape:connector-curvature="0"
   style="fill:#000000" />
  <path
   class="fil5 str3"
   d="m 432,319 23,30"
   id="path4618"
   inkscape:connector-curvature="0"
   style="fill:none;stroke:#000000;stroke-width:2;stroke-dasharray:5, 7" />
 </g>
<path
   style="opacity:0;fill:#0072bb;fill-opacity:0.73295456;stroke:#000000;stroke-width:1.00136805px;stroke-linecap:butt;stroke-linejoin:miter;stroke-opacity:1" class = "outline" 
   d="M 37.674427,328.10485 46.308764,284.93317 69.000001,262.00001 77.968005,231.20839 101.00001,217 113.46472,188.99607 138.40837,162.13369 164,149 191.17377,127.59633 220.00001,121 l 30.65476,-20.26605 35.49673,-9.593713 10.84851,-0.140236 42.99999,-14 29.00001,-12 54.34153,-11.27523 22.06552,-0.959371 55.64352,-5.756225 45.09043,4.796855 20.85899,2.193971 -10.99999,32 v 0 L 531.75045,90.180866 499.00001,104 492.41624,118.00263 497,136 l 3,11 6.00001,17.00001 -20,13.99999 -7.01497,21.54915 L 476,226.00001 461,251 l 1.00001,18 -4.12112,18.81128 -4.79685,5.75622 -21.08203,25.43251 11.48831,16.77981 L 453,346 l 2.00001,3 -21.1054,11.72347 L 430,371 l -36.39896,3.15465 -28.78113,13.4312 -27.82176,16.3093 L 317,430.00001 308.21702,465.29489 293,476.00001 270.80156,513.26344 266.00001,547 213.2393,555.47576 169.10824,554.51639 121.1397,545.88205 104,528.00001 77.008633,513.26344 61.658699,484.48232 48.227507,442.26999 50.000001,432.00001 36.715055,398.13893 40.000001,365.00001 Z"
   id="frontal"
   inkscape:connector-curvature="0"
   inkscape:label="frontal"
   onmouseover="this.style.opacity=1"
   onmouseout="this.style.opacity=0" /><path
   style="fill:#ffd455;stroke:#000000;stroke-width:1.00136805px;stroke-linecap:butt;stroke-linejoin:miter;stroke-opacity:1;fill-opacity:0.78431374;opacity:0" class = "outline" 
   d="M 455.00002,349 478.02567,341.53604 491.00001,340 506.8068,329.06422 525.03485,317.55178 549,310 l 15,2 46.41886,7.47052 133.35256,21.10615 86.22859,12.42333 3,-28.99999 32.61152,-35.22936 L 903.00001,251 894.39265,228.33028 881.92084,214.89908 869.00001,207 859.8553,178.44299 847.38347,165.97117 817.00001,153 l -21.42256,-24.4443 -25.90302,-20.14679 -20.14678,-9.593705 -21.52764,-9.815204 -1.00001,-1 -22.56279,-13.16907 -19.4372,3.16907 L 673.73734,67.155964 650.71244,56.602884 634.40313,55.643513 603,60.000001 587.39396,51.80603 572,53.000001 565.32843,76.749673 556.00002,86.000002 531.75046,90.180867 499.00002,104 492.41624,118.00263 497,136 l 9.00001,28.00001 -10,3.99999 -10,10 -7.01497,21.54915 L 476,226.00001 466.51322,237.92399 461,251 l 1.00001,18 -4.12111,18.81129 -21.10617,18.22803 L 433,320 Z"
   id="parietal"
   inkscape:connector-curvature="0"
   inkscape:label="parietal"
   onmouseover="this.style.opacity=1"
   onmouseout="this.style.opacity=0" /><path
   style="fill:#499a55;stroke:#000000;stroke-width:1.00136805px;stroke-linecap:butt;stroke-linejoin:miter;stroke-opacity:1;fill-opacity:0.86448598;opacity:0" class = "outline" 
   d="M 277.51715,503.66973 280,489.00001 308.21702,465.29489 315.892,454.74182 317,430.00002 336.99815,403.89515 364.81992,387.58585 404.15411,375.11402 427,370.00001 455.00003,349 l 35.99998,-9 13.88805,-8.05766 20.14679,-14.39055 L 561.00001,315 567,312 830.00001,354 838,407.00001 l -0.21023,14.16383 16.30931,34.53735 10.90093,15.29882 39,11 40,12.99999 -19.86686,14.42595 -24.94364,5.75623 -22.1895,3.81782 -38,-0.99999 v 0 l -28,8.99999 -23,-1 L 758,518.00001 726.50274,530.53212 711.00001,537 l -12,7.00001 -40,10 -36,3.99999 -31,1.00001 -11,-5 -24.00001,17 -13.99999,3 -44,16 -9.46188,18.24115 -19.18742,14.39057 -21.10616,5.75622 -30.24454,2.61206 -15.80527,6.02228 h -28.78113 l -23.02489,-5.75623 -15.38871,-12.26605 -28.74236,-14.59634 -14.39056,-16.3093 -5.86708,-14.09436 L 266.00002,547 l 0.005,-18.38662 z"
   id="temporal"
   inkscape:connector-curvature="0"
   inkscape:label="temporal"
   onmouseover="this.style.opacity=1"
   onmouseout="this.style.opacity=0" /><path
   style="fill:#cd2a69;stroke:#000000;stroke-width:1.00136805px;stroke-linecap:butt;stroke-linejoin:miter;stroke-opacity:1;fill-opacity:0.86448598;opacity:0" class = "outline"
   d="M 906.00001,255 889.5958,269.58323 881.00001,277 846.4241,308.91743 833.00001,327 l -3,27 10,48 v 0 l -2.21023,19.16385 16.30931,34.53735 10.90093,15.29882 57.21439,12.52293 21.7856,11.47705 26.18294,-40.25818 3.81706,-17.74181 7.6954,-27.34863 -4.6954,-18.65137 3.73602,-18.7641 L 966.34547,346.3329 957.00001,341 944.27994,304.12058 930.00001,292 l -0.11063,-19.53866 -6.7156,-9.59371 z"
   id="occipital"
   inkscape:connector-curvature="0"
   inkscape:label="occipital"
   onmouseover="this.style.opacity=1"
   onmouseout="this.style.opacity=0" /></svg>